# xmcd
#
# Track frame offsets:
#	150
#	22889
#	35918
#	54281
#	76794
#	99922
#	120540
#	137967
#	157959
#	174119
#	197384
#	218982
#	240451
#	261338
#	282447
#	301183
#
# Disc length: 4245 seconds
#
# Revision: 0
# Processed by: cddbd v1.5.2PL0 Copyright (c) Steve Scherf et al.
# Submitted via: dBpowerAMP V4.0
#
DISCID=ca109310
DTITLE=Varios - Over Night Remixes 5
DYEAR=1900
DGENRE=Electronic
TTITLE0=Dj Duke - Escape From N.Y.
TTITLE1=Dj Funk - Work It
TTITLE2=Sex Kraz' d Superstars - Feelin Horney
TTITLE3=Boris dlugosch pres. Boom! - Hold your head up high
TTITLE4=Dj Prettyboy - Get on up
TTITLE5=Club culture - Chapter one
TTITLE6=Hitmakers - Amazing phenomena
TTITLE7=Dj trajic - Stomp
TTITLE8=Geoffrey Williams - Sex life
TTITLE9=Q-club - I' ll be there
TTITLE10=The baker - Stop! Love patrol
TTITLE11=Dj Deeon - Let it be house
TTITLE12=Dj Juanito - I'll be good
TTITLE13=Keith litman - Kick it in
TTITLE14=The nuwerk city players - The feeling
TTITLE15=Dance floor - you Know house
EXTD=
EXTT0=
EXTT1=
EXTT2=
EXTT3=
EXTT4=
EXTT5=
EXTT6=
EXTT7=
EXTT8=
EXTT9=
EXTT10=
EXTT11=
EXTT12=
EXTT13=
EXTT14=
EXTT15=
PLAYORDER=
